<svg width="20" height="20" viewBox="0 0 20 20" fill="none" xmlns="http://www.w3.org/2000/svg">
<path d="M9.99 0C4.53 0 0.0800002 4.45 0.0800002 9.91C0.0800002 11.66 0.54 13.36 1.4 14.86L0 20L5.25 18.62C6.7 19.41 8.33 19.83 9.99 19.83C15.45 19.83 19.9 15.38 19.9 9.92C19.9 7.27 18.87 4.78 17 2.91C15.13 1.03 12.64 0 9.99 0ZM10 1.67C12.2 1.67 14.26 2.53 15.82 4.09C17.37 5.65 18.23 7.72 18.23 9.92C18.23 14.46 14.53 18.15 9.99 18.15C8.51 18.15 7.06 17.76 5.8 17L5.5 16.83L2.38 17.65L3.21 14.61L3.01 14.29C2.19 13 1.75 11.47 1.75 9.91C1.76 5.37 5.45 1.67 10 1.67ZM6.48 5.33C6.32 5.33 6.05 5.39 5.82 5.64C5.6 5.89 4.95 6.5 4.95 7.71C4.95 8.93 5.84 10.1 5.95 10.27C6.09 10.44 7.71 12.94 10.2 14C10.79 14.27 11.25 14.42 11.61 14.53C12.2 14.72 12.74 14.69 13.17 14.63C13.65 14.56 14.63 14.03 14.84 13.45C15.05 12.87 15.05 12.38 14.99 12.27C14.92 12.17 14.76 12.11 14.51 12C14.26 11.86 13.04 11.26 12.82 11.18C12.59 11.1 12.45 11.06 12.26 11.3C12.1 11.55 11.62 12.11 11.48 12.27C11.33 12.44 11.19 12.46 10.95 12.34C10.69 12.21 9.89 11.95 8.95 11.11C8.21 10.45 7.72 9.64 7.57 9.39C7.45 9.15 7.56 9 7.68 8.89C7.79 8.78 7.95 8.6 8.05 8.45C8.18 8.31 8.22 8.2 8.3 8.04C8.38 7.87 8.34 7.73 8.28 7.61C8.22 7.5 7.72 6.26 7.51 5.77C7.31 5.29 7.11 5.35 6.95 5.34C6.81 5.34 6.65 5.33 6.48 5.33Z" fill="white"/>
</svg>
