<svg width="22" height="16" viewBox="0 0 22 16" fill="none" xmlns="http://www.w3.org/2000/svg">
<path d="M4 0H22V12H4V0ZM13 3C13.7956 3 14.5587 3.31607 15.1213 3.87868C15.6839 4.44129 16 5.20435 16 6C16 6.79565 15.6839 7.55871 15.1213 8.12132C14.5587 8.68393 13.7956 9 13 9C12.2044 9 11.4413 8.68393 10.8787 8.12132C10.3161 7.55871 10 6.79565 10 6C10 5.20435 10.3161 4.44129 10.8787 3.87868C11.4413 3.31607 12.2044 3 13 3ZM8 2C8 2.53043 7.78929 3.03914 7.41421 3.41421C7.03914 3.78929 6.53043 4 6 4V8C6.53043 8 7.03914 8.21071 7.41421 8.58579C7.78929 8.96086 8 9.46957 8 10H18C18 9.46957 18.2107 8.96086 18.5858 8.58579C18.9609 8.21071 19.4696 8 20 8V4C19.4696 4 18.9609 3.78929 18.5858 3.41421C18.2107 3.03914 18 2.53043 18 2H8ZM0 4H2V14H18V16H0V4Z" fill="white"/>
</svg>
